<?xml version="1.0" encoding="UTF-8"?>
<svg viewBox="0 0 640 480" xmlns="http://www.w3.org/2000/svg">
 <path d="m313.56 433.31c-101.54 0-183.97-82.422-183.97-183.97 0-50.575 20.528-96.309 53.604-129.56l0.1557 0.1557c6.6866-9.2312 17.486-15.289 29.748-15.289 20.309 0 36.809 16.474 36.809 36.783 0 12.453-6.2276 23.428-15.705 30.086l0.1298 0.1298c-19.874 20.016-32.318 47.346-32.318 77.693 0 61.221 49.932 110.92 111.44 110.92 61.507 0 111.41-49.699 111.41-110.92 0-27.696-10.417-52.814-27.334-72.216-10.063-6.5677-16.769-17.882-16.769-30.786 0-20.309 16.5-36.809 36.809-36.809 9.9285 0 18.896 4.0093 25.517 10.409l0.5192-0.5192c33.27 33.274 53.889 79.178 53.889 129.92 0 101.54-82.395 183.97-183.94 183.97zm-0.026-182.69c-20.382 0-36.783-16.698-36.783-37.458v-148.4c0-20.759 16.4-37.458 36.783-37.458 20.382 0 36.809 16.698 36.809 37.458v148.4c0 20.759-16.426 37.458-36.809 37.458z" fill="#bfbfbf" fill-rule="evenodd" stroke-dasharray="7.6116890 7.6116890" stroke-linecap="round" stroke-linejoin="round" stroke-opacity=".841" stroke-width="3.806"/>
</svg>
