<svg xmlns="http://www.w3.org/2000/svg" viewBox="0 0 367.9 406.01"><title>power-off-new</title><path d="M189.56,411.31c-101.54,0-184-82.42-184-184A183.15,183.15,0,0,1,59.19,97.78l.16.16a36.74,36.74,0,1,1,50.85,51.58l.13.13A109.91,109.91,0,0,0,78,227.34C78,288.56,128,338.26,189.45,338.26s111.41-49.7,111.41-110.92a109.42,109.42,0,0,0-27.33-72.22,36.74,36.74,0,1,1,45.56-57.18l.52-.52a183.16,183.16,0,0,1,53.88,129.92c0,101.54-82.39,184-183.94,184Zm0-182.69c-20.38,0-36.78-16.7-36.78-37.46V42.76c0-20.76,16.4-37.46,36.78-37.46S226.34,22,226.34,42.76v148.4C226.34,211.92,209.92,228.62,189.53,228.62Z" transform="translate(-5.59 -5.3)" fill="#bfbfbf"/></svg>